<svg width="385" height="189" viewBox="0 0 385 189" fill="none" xmlns="http://www.w3.org/2000/svg">
<path d="M1.84375 46C1.67708 46 1.59375 45.9167 1.59375 45.75V45C1.59375 44.8333 1.67708 44.75 1.84375 44.75H2.59375C4.38542 44.75 5.94792 44.375 7.28125 43.625C7.82292 43.3125 8.27083 42.8333 8.625 42.1875C8.97917 41.5208 9.15625 40.7812 9.15625 39.9688V6.90625C9.15625 5.61458 8.32292 4.625 6.65625 3.9375C5.48958 3.4375 4.25 3.1875 2.9375 3.1875H2.25C2.08333 3.1875 2 3.10417 2 2.9375V2.1875C2 2.02083 2.08333 1.9375 2.25 1.9375H23.4062C23.5729 1.9375 23.6562 2.02083 23.6562 2.1875V2.9375C23.6562 3.10417 23.5729 3.1875 23.4062 3.1875H22.0625C19.9167 3.1875 18.0208 3.48958 16.375 4.09375C15.8958 4.26042 15.5833 4.54167 15.4375 4.9375C15.3125 5.3125 15.25 5.96875 15.25 6.90625V41.5625C15.2917 41.9167 15.4792 42.25 15.8125 42.5625C16.1458 42.875 16.5208 43.0312 16.9375 43.0312H29.2812C31.1354 43.0312 32.9583 41.9375 34.75 39.75C35.2292 39.1667 35.8229 38.3958 36.5312 37.4375C37.2396 36.4583 37.6771 35.9062 37.8438 35.7812C38.5104 35.2812 38.8438 35.2917 38.8438 35.8125C38.8438 35.9375 38.8125 36.0625 38.75 36.1875L34.0312 45.4375C33.8438 45.8125 33.625 46 33.375 46H1.84375ZM78.1188 45.75C78.1188 45.9167 78.0354 46 77.8688 46H61.9C61.7333 46 61.65 45.9167 61.65 45.75V45C61.65 44.8333 61.7854 44.75 62.0563 44.75C64.9104 44.625 66.8375 43.1042 67.8375 40.1875L80.5875 3.28125C80.6083 3.23958 80.6188 3.1875 80.6188 3.125L80.275 2.09375C80.275 1.98958 80.3167 1.9375 80.4 1.9375H86.65C86.6917 1.95833 86.7438 1.97917 86.8063 2C86.8896 2.02083 86.9521 2.08333 86.9938 2.1875L100.213 39.2812C100.504 39.8438 100.733 40.3542 100.9 40.8125C101.088 41.2708 101.296 41.6875 101.525 42.0625C102.025 42.9167 102.848 43.5729 103.994 44.0312C104.952 44.5104 105.827 44.75 106.619 44.75C106.785 44.75 106.869 44.8438 106.869 45.0312V45.75C106.869 45.9167 106.785 46 106.619 46H87.4938C87.3271 46 87.2438 45.9167 87.2438 45.75V45C87.2438 44.8333 87.6292 44.7292 88.4 44.6875C89.1708 44.6458 89.8063 44.6042 90.3063 44.5625C93.2021 44.25 94.65 43.2708 94.65 41.625C94.65 41.5 94.6292 41.3542 94.5875 41.1875L89.8688 27.875C89.8479 27.8333 89.8063 27.7396 89.7438 27.5938C89.4938 26.8854 89.0563 26.5312 88.4313 26.5312H77.3375C76.7125 26.5312 76.2229 26.875 75.8688 27.5625C75.8063 27.7083 75.775 27.7917 75.775 27.8125L71.0875 41.5312V41.8125C71.0875 42.3542 71.3688 42.8438 71.9313 43.2812C73.2021 44.2604 74.9104 44.75 77.0563 44.75H77.8688C78.0354 44.75 78.1188 44.8333 78.1188 45V45.75ZM87.3688 23.0625C87.7438 23.0625 87.9313 22.9062 87.9313 22.5938C87.9313 22.4271 87.8896 22.2396 87.8063 22.0312L83.15 9.21875C82.9417 8.65625 82.7854 8.375 82.6813 8.375C82.5771 8.375 82.4104 8.66667 82.1813 9.25L77.8063 22.0312C77.7229 22.2396 77.6813 22.4688 77.6813 22.7188C77.6813 22.9479 77.8375 23.0625 78.15 23.0625H87.3688ZM141.925 45C141.925 44.8333 142.019 44.75 142.206 44.75H143.081C145.123 44.75 146.758 44.3125 147.988 43.4375C149.238 42.5625 149.863 41.5417 149.863 40.375V5.78125C149.863 5.34375 149.769 5.10417 149.581 5.0625C149.415 5 149.206 4.94792 148.956 4.90625H136.956C135.019 5.32292 133.748 6.8125 133.144 9.375C132.81 10.75 132.613 11.6354 132.55 12.0312C132.488 12.4062 132.373 12.5938 132.206 12.5938H131.644C131.519 12.5938 131.456 12.5521 131.456 12.4688V11.4375L132.613 1.6875C132.738 1.04167 132.946 0.71875 133.238 0.71875C133.529 0.71875 133.842 0.927083 134.175 1.34375C134.508 1.73958 135.144 1.9375 136.081 1.9375H169.769C170.665 1.9375 171.206 1.83333 171.394 1.625C171.581 1.41667 171.758 1.21875 171.925 1.03125C172.092 0.822917 172.3 0.71875 172.55 0.71875C172.821 0.71875 172.988 0.822917 173.05 1.03125C173.133 1.23958 173.196 1.45833 173.238 1.6875L174.394 11.4375V12.4688C174.394 12.5521 174.331 12.5938 174.206 12.5938H173.644C173.477 12.5938 173.363 12.4375 173.3 12.125C172.967 10.0417 172.488 8.39583 171.863 7.1875C171.238 5.95833 170.248 5.19792 168.894 4.90625H156.863C156.613 4.94792 156.394 5 156.206 5.0625C156.04 5.10417 155.956 5.34375 155.956 5.78125V40.375C155.956 41.5417 156.571 42.5625 157.8 43.4375C159.05 44.3125 160.696 44.75 162.738 44.75H163.644C163.81 44.75 163.894 44.8333 163.894 45V45.75C163.894 45.9167 163.81 46 163.644 46H142.175C142.008 46 141.925 45.9167 141.925 45.75V45ZM199.012 45.75V44.875C199.012 44.7083 199.096 44.625 199.262 44.625H199.95C200.825 44.5625 201.721 44.5312 202.637 44.5312C203.554 44.5104 204.387 44.3958 205.137 44.1875C206.846 43.6875 207.7 42.4375 207.7 40.4375V7.5C207.7 5.4375 206.481 4.125 204.044 3.5625C203.356 3.41667 202.658 3.29167 201.95 3.1875H201.294C201.127 3.1875 201.044 3.10417 201.044 2.9375V2.1875C201.044 2.02083 201.127 1.9375 201.294 1.9375H231.012C231.387 1.9375 231.658 2.01042 231.825 2.15625C231.992 2.28125 232.096 2.57292 232.137 3.03125L232.7 12.0938C232.7 12.3021 232.544 12.4062 232.231 12.4062C231.919 12.4062 231.69 12.3125 231.544 12.125C231.419 11.9167 231.252 11.1562 231.044 9.84375C230.856 8.53125 230.502 7.4375 229.981 6.5625C229.46 5.6875 228.544 5.13542 227.231 4.90625H214.2C213.929 4.90625 213.794 5.04167 213.794 5.3125V21.4688C213.794 21.6771 213.898 21.7812 214.106 21.7812H224.919C227.71 21.7812 229.106 20.1562 229.106 16.9062C229.106 16.7396 229.19 16.6562 229.356 16.6562H230.106C230.273 16.6562 230.356 16.7396 230.356 16.9062V30.2812C230.356 30.4479 230.273 30.5312 230.106 30.5312H229.356C229.19 30.5312 229.106 30.4479 229.106 30.2812C229.106 27.1979 228.21 25.4167 226.419 24.9375C225.919 24.8125 225.387 24.75 224.825 24.75H214.106C213.898 24.75 213.794 24.8542 213.794 25.0625V40.2812C213.794 41.8438 214.512 42.7292 215.95 42.9375C216.367 43 216.804 43.0312 217.262 43.0312H227.669C229.815 43.0312 231.481 42.0833 232.669 40.1875C233.523 38.8333 234.044 37.2812 234.231 35.5312C234.294 34.9479 234.606 34.6562 235.169 34.6562C235.419 34.6562 235.544 34.7917 235.544 35.0625L234.512 45.5625C234.387 45.8542 234.242 46 234.075 46H199.262C199.096 46 199.012 45.9167 199.012 45.75ZM262.819 46C262.652 46 262.569 45.9167 262.569 45.75V45C262.569 44.8333 262.673 44.75 262.881 44.75H263.6C264.746 44.75 265.527 44.6458 265.944 44.4375C267.485 43.6875 268.256 41.625 268.256 38.25V5.78125C268.256 4.38542 266.902 3.55208 264.194 3.28125C263.59 3.21875 263.163 3.1875 262.913 3.1875C262.683 3.1875 262.569 3.10417 262.569 2.9375V2.1875C262.569 2.02083 262.652 1.9375 262.819 1.9375H274.256L303.913 34.7188C304.017 34.8229 304.09 34.9062 304.131 34.9688C304.173 35.0104 304.235 35.0312 304.319 35.0312C304.423 35.0312 304.475 34.9375 304.475 34.75V13.2188C304.475 9.07292 304.131 6.36458 303.444 5.09375C302.756 3.82292 301.371 3.1875 299.288 3.1875H297.694C297.527 3.1875 297.444 3.10417 297.444 2.9375V2.1875C297.444 2.02083 297.527 1.9375 297.694 1.9375H313.944C314.11 1.9375 314.194 2.02083 314.194 2.1875V2.9375C314.194 3.10417 313.881 3.1875 313.256 3.1875C312.652 3.1875 311.642 3.54167 310.225 4.25C308.829 4.95833 308.131 5.83333 308.131 6.875V45.0938C308.131 45.5521 308.069 45.875 307.944 46.0625C307.819 46.2708 307.517 46.375 307.038 46.375C306.579 46.375 306.235 46.2812 306.006 46.0938C305.777 45.9062 305.506 45.6354 305.194 45.2812L272.975 9.5625C272.767 9.35417 272.579 9.25 272.413 9.25C272.308 9.25 272.256 9.35417 272.256 9.5625V40.75C272.256 42.6458 273.756 43.8958 276.756 44.5C277.59 44.6667 278.225 44.75 278.663 44.75C279.1 44.75 279.319 44.8333 279.319 45V45.75C279.319 45.9167 279.235 46 279.069 46H262.819ZM350.188 45C350.188 44.8333 350.281 44.75 350.469 44.75H351.344C353.385 44.75 355.021 44.3125 356.25 43.4375C357.5 42.5625 358.125 41.5417 358.125 40.375V5.78125C358.125 5.34375 358.031 5.10417 357.844 5.0625C357.677 5 357.469 4.94792 357.219 4.90625H345.219C343.281 5.32292 342.01 6.8125 341.406 9.375C341.073 10.75 340.875 11.6354 340.812 12.0312C340.75 12.4062 340.635 12.5938 340.469 12.5938H339.906C339.781 12.5938 339.719 12.5521 339.719 12.4688V11.4375L340.875 1.6875C341 1.04167 341.208 0.71875 341.5 0.71875C341.792 0.71875 342.104 0.927083 342.438 1.34375C342.771 1.73958 343.406 1.9375 344.344 1.9375H378.031C378.927 1.9375 379.469 1.83333 379.656 1.625C379.844 1.41667 380.021 1.21875 380.188 1.03125C380.354 0.822917 380.562 0.71875 380.812 0.71875C381.083 0.71875 381.25 0.822917 381.312 1.03125C381.396 1.23958 381.458 1.45833 381.5 1.6875L382.656 11.4375V12.4688C382.656 12.5521 382.594 12.5938 382.469 12.5938H381.906C381.74 12.5938 381.625 12.4375 381.562 12.125C381.229 10.0417 380.75 8.39583 380.125 7.1875C379.5 5.95833 378.51 5.19792 377.156 4.90625H365.125C364.875 4.94792 364.656 5 364.469 5.0625C364.302 5.10417 364.219 5.34375 364.219 5.78125V40.375C364.219 41.5417 364.833 42.5625 366.062 43.4375C367.312 44.3125 368.958 44.75 371 44.75H371.906C372.073 44.75 372.156 44.8333 372.156 45V45.75C372.156 45.9167 372.073 46 371.906 46H350.438C350.271 46 350.188 45.9167 350.188 45.75V45Z" fill="white"/>
<path d="M27.275 77.3125C27.4833 77.3125 27.5875 77.5417 27.5875 78L28.4 84.6562C28.4833 85.0729 28.525 85.3438 28.525 85.4688C28.525 85.5729 28.3583 85.625 28.025 85.625C27.7125 85.625 27.5146 85.5833 27.4312 85.5C27.3479 85.4167 27.2646 85.2812 27.1812 85.0938C27.0979 84.8854 26.9937 84.6562 26.8687 84.4062C26.7646 84.1562 26.65 83.9062 26.525 83.6562C26.0875 82.6979 25.4 81.75 24.4625 80.8125C22.1708 78.6042 19.5875 77.5 16.7125 77.5C14.9833 77.5 13.3479 78.0625 11.8062 79.1875C10.2646 80.3125 9.49374 81.6458 9.49374 83.1875C9.49374 84.7083 9.77499 86.0312 10.3375 87.1562C10.9208 88.2812 11.6812 89.3229 12.6187 90.2812C13.5562 91.2396 14.6292 92.1562 15.8375 93.0312C17.0458 93.9062 18.275 94.7917 19.525 95.6875C22.8375 98 25.1917 99.9792 26.5875 101.625C28.775 104.167 29.9625 107.021 30.15 110.188C30.15 113.729 28.7854 116.562 26.0562 118.688C23.3479 120.792 20.1917 121.844 16.5875 121.844C14.275 121.844 12.4312 121.604 11.0562 121.125C9.70208 120.667 8.76458 120.333 8.24374 120.125C7.72291 119.917 7.33749 119.812 7.08749 119.812C6.85833 119.812 6.71249 119.823 6.64999 119.844L5.11874 120.156C4.84791 120.156 4.68124 119.938 4.61874 119.5C4.01458 114.333 3.71249 111.594 3.71249 111.281C3.71249 110.948 3.73333 110.729 3.77499 110.625C3.83749 110.5 3.98333 110.438 4.21249 110.438C4.79583 110.438 5.32708 111.271 5.80624 112.938C7.99374 117.625 11.6292 119.969 16.7125 119.969C19.0458 119.969 21.0354 119.26 22.6812 117.844C24.3479 116.427 25.1812 114.583 25.1812 112.312C25.1812 108.688 23.0146 105.312 18.6812 102.188C17.4521 101.312 15.6812 100.094 13.3687 98.5312C11.0562 96.9688 9.21249 95.4062 7.83749 93.8438C5.69166 91.4271 4.61874 88.7396 4.61874 85.7812C4.61874 82.8021 5.79583 80.3646 8.14999 78.4688C10.525 76.5729 13.2437 75.625 16.3062 75.625C17.8896 75.625 19.6292 75.8958 21.525 76.4375C23.4417 76.9792 24.775 77.3438 25.525 77.5312L27.275 77.3125ZM65.5275 121C65.3608 121 65.2775 120.792 65.2775 120.375V120C65.2775 119.833 65.3817 119.75 65.59 119.75C65.7983 119.75 66.1004 119.688 66.4962 119.562C66.9129 119.438 67.2254 119.354 67.4337 119.312C69.5587 118.833 70.6212 117.625 70.6212 115.688V82.6875C70.6212 80.7708 70.2671 79.5521 69.5587 79.0312C68.8504 78.4896 67.5692 78.2188 65.715 78.2188H64.3087C63.8712 78.2188 63.6525 77.9688 63.6525 77.4688C63.6525 77.1771 63.7879 77 64.0587 76.9375H64.2775L81.8087 76.4688H84.965C88.6942 76.7188 91.7983 78.0625 94.2775 80.5C96.7567 82.9375 97.9962 85.8646 97.9962 89.2812C97.9962 92.6771 96.7775 95.7604 94.34 98.5312C93.2775 99.7604 92.0796 100.76 90.7462 101.531C89.4129 102.281 88.1004 102.667 86.8087 102.688L77.4337 102.312H77.1837C76.8712 102.312 76.715 102.458 76.715 102.75V115.594C76.715 116.74 77.0275 117.583 77.6525 118.125C78.2775 118.667 79.6004 119.094 81.6212 119.406C81.8921 119.448 82.3296 119.521 82.9337 119.625C83.5379 119.708 83.9442 119.75 84.1525 119.75C84.3608 119.75 84.465 119.833 84.465 120V120.75C84.465 120.917 84.3817 121 84.215 121H65.5275ZM79.2462 78.0625C78.9962 78.0625 78.7254 78.0729 78.4337 78.0938C78.1629 78.0938 77.8087 78.1042 77.3712 78.125C76.9337 78.125 76.715 78.2917 76.715 78.625V98.7812L76.7775 99.7188C76.84 100.156 77.0379 100.385 77.3712 100.406L80.5587 100.594C83.9129 100.594 86.6108 99.4688 88.6525 97.2188C90.715 94.9688 91.7462 92.1458 91.7462 88.75C91.7462 85.3333 90.7462 82.6875 88.7462 80.8125C86.7671 78.9375 84.1212 78 80.8087 78C80.5171 78 80.2462 78.0104 79.9962 78.0312C79.7462 78.0312 79.4962 78.0417 79.2462 78.0625ZM146.342 120.75C146.342 120.917 146.259 121 146.092 121H130.124C129.957 121 129.874 120.917 129.874 120.75V120C129.874 119.833 130.009 119.75 130.28 119.75C133.134 119.625 135.061 118.104 136.061 115.188L148.811 78.2812C148.832 78.2396 148.842 78.1875 148.842 78.125L148.499 77.0938C148.499 76.9896 148.54 76.9375 148.624 76.9375H154.874C154.915 76.9583 154.967 76.9792 155.03 77C155.113 77.0208 155.176 77.0833 155.217 77.1875L168.436 114.281C168.728 114.844 168.957 115.354 169.124 115.812C169.311 116.271 169.52 116.688 169.749 117.062C170.249 117.917 171.072 118.573 172.217 119.031C173.176 119.51 174.051 119.75 174.842 119.75C175.009 119.75 175.092 119.844 175.092 120.031V120.75C175.092 120.917 175.009 121 174.842 121H155.717C155.551 121 155.467 120.917 155.467 120.75V120C155.467 119.833 155.853 119.729 156.624 119.688C157.395 119.646 158.03 119.604 158.53 119.562C161.426 119.25 162.874 118.271 162.874 116.625C162.874 116.5 162.853 116.354 162.811 116.188L158.092 102.875C158.072 102.833 158.03 102.74 157.967 102.594C157.717 101.885 157.28 101.531 156.655 101.531H145.561C144.936 101.531 144.447 101.875 144.092 102.562C144.03 102.708 143.999 102.792 143.999 102.812L139.311 116.531V116.812C139.311 117.354 139.592 117.844 140.155 118.281C141.426 119.26 143.134 119.75 145.28 119.75H146.092C146.259 119.75 146.342 119.833 146.342 120V120.75ZM155.592 98.0625C155.967 98.0625 156.155 97.9062 156.155 97.5938C156.155 97.4271 156.113 97.2396 156.03 97.0312L151.374 84.2188C151.165 83.6562 151.009 83.375 150.905 83.375C150.801 83.375 150.634 83.6667 150.405 84.25L146.03 97.0312C145.947 97.2396 145.905 97.4688 145.905 97.7188C145.905 97.9479 146.061 98.0625 146.374 98.0625H155.592ZM246.751 119.812C246.647 119.979 246.387 120.021 245.97 119.938C245.574 119.833 245.105 119.781 244.564 119.781C244.022 119.781 243.251 119.896 242.251 120.125C241.272 120.333 239.72 120.667 237.595 121.125C235.47 121.604 233.533 121.844 231.783 121.844C227.824 121.844 223.98 120.917 220.251 119.062C216.543 117.188 213.574 114.542 211.345 111.125C209.116 107.688 208.001 103.708 208.001 99.1875C208.001 94.6667 209.116 90.5729 211.345 86.9062C214.595 81.5312 219.491 78.0312 226.033 76.4062C228.116 75.8854 230.199 75.625 232.283 75.625C235.137 75.625 238.522 76.1042 242.439 77.0625C243.626 77.3542 244.626 77.6562 245.439 77.9688C246.272 78.2812 246.783 78.4375 246.97 78.4375L247.908 78.1875H248.876C249.126 78.1875 249.251 78.3646 249.251 78.7188V88.4375C249.251 88.6458 249.064 88.75 248.689 88.75C248.314 88.75 248.095 88.7083 248.033 88.625C247.97 88.5208 247.908 88.4062 247.845 88.2812C247.783 88.1354 247.71 87.9896 247.626 87.8438C247.564 87.6979 247.491 87.5625 247.408 87.4375C247.345 87.3125 247.303 87.2188 247.283 87.1562C244.158 80.8854 239.418 77.75 233.064 77.75C227.335 77.75 222.855 79.5729 219.626 83.2188C216.397 86.8646 214.783 91.6979 214.783 97.7188C214.783 103.719 216.553 108.875 220.095 113.188C223.658 117.5 228.491 119.656 234.595 119.656C237.928 119.656 240.96 118.667 243.689 116.688C246.439 114.708 248.595 112.281 250.158 109.406C250.199 109.281 250.324 109.219 250.533 109.219H250.939C251.147 109.219 251.251 109.344 251.251 109.594C251.251 109.844 251.189 110.083 251.064 110.312L246.751 119.812ZM283.316 120.75V119.875C283.316 119.708 283.4 119.625 283.566 119.625H284.254C285.129 119.562 286.025 119.531 286.941 119.531C287.858 119.51 288.691 119.396 289.441 119.188C291.15 118.688 292.004 117.438 292.004 115.438V82.5C292.004 80.4375 290.785 79.125 288.348 78.5625C287.66 78.4167 286.962 78.2917 286.254 78.1875H285.598C285.431 78.1875 285.348 78.1042 285.348 77.9375V77.1875C285.348 77.0208 285.431 76.9375 285.598 76.9375H315.316C315.691 76.9375 315.962 77.0104 316.129 77.1562C316.295 77.2812 316.4 77.5729 316.441 78.0312L317.004 87.0938C317.004 87.3021 316.848 87.4062 316.535 87.4062C316.223 87.4062 315.993 87.3125 315.848 87.125C315.723 86.9167 315.556 86.1562 315.348 84.8438C315.16 83.5312 314.806 82.4375 314.285 81.5625C313.764 80.6875 312.848 80.1354 311.535 79.9062H298.504C298.233 79.9062 298.098 80.0417 298.098 80.3125V96.4688C298.098 96.6771 298.202 96.7812 298.41 96.7812H309.223C312.014 96.7812 313.41 95.1562 313.41 91.9062C313.41 91.7396 313.493 91.6562 313.66 91.6562H314.41C314.577 91.6562 314.66 91.7396 314.66 91.9062V105.281C314.66 105.448 314.577 105.531 314.41 105.531H313.66C313.493 105.531 313.41 105.448 313.41 105.281C313.41 102.198 312.514 100.417 310.723 99.9375C310.223 99.8125 309.691 99.75 309.129 99.75H298.41C298.202 99.75 298.098 99.8542 298.098 100.062V115.281C298.098 116.844 298.816 117.729 300.254 117.938C300.67 118 301.108 118.031 301.566 118.031H311.973C314.118 118.031 315.785 117.083 316.973 115.188C317.827 113.833 318.348 112.281 318.535 110.531C318.598 109.948 318.91 109.656 319.473 109.656C319.723 109.656 319.848 109.792 319.848 110.062L318.816 120.562C318.691 120.854 318.545 121 318.379 121H283.566C283.4 121 283.316 120.917 283.316 120.75ZM378.413 77.3125C378.621 77.3125 378.725 77.5417 378.725 78L379.538 84.6562C379.621 85.0729 379.663 85.3438 379.663 85.4688C379.663 85.5729 379.496 85.625 379.163 85.625C378.85 85.625 378.652 85.5833 378.569 85.5C378.485 85.4167 378.402 85.2812 378.319 85.0938C378.235 84.8854 378.131 84.6562 378.006 84.4062C377.902 84.1562 377.788 83.9062 377.663 83.6562C377.225 82.6979 376.538 81.75 375.6 80.8125C373.308 78.6042 370.725 77.5 367.85 77.5C366.121 77.5 364.485 78.0625 362.944 79.1875C361.402 80.3125 360.631 81.6458 360.631 83.1875C360.631 84.7083 360.913 86.0312 361.475 87.1562C362.058 88.2812 362.819 89.3229 363.756 90.2812C364.694 91.2396 365.767 92.1562 366.975 93.0312C368.183 93.9062 369.413 94.7917 370.663 95.6875C373.975 98 376.329 99.9792 377.725 101.625C379.913 104.167 381.1 107.021 381.288 110.188C381.288 113.729 379.923 116.562 377.194 118.688C374.485 120.792 371.329 121.844 367.725 121.844C365.413 121.844 363.569 121.604 362.194 121.125C360.84 120.667 359.902 120.333 359.381 120.125C358.86 119.917 358.475 119.812 358.225 119.812C357.996 119.812 357.85 119.823 357.788 119.844L356.256 120.156C355.985 120.156 355.819 119.938 355.756 119.5C355.152 114.333 354.85 111.594 354.85 111.281C354.85 110.948 354.871 110.729 354.913 110.625C354.975 110.5 355.121 110.438 355.35 110.438C355.933 110.438 356.465 111.271 356.944 112.938C359.131 117.625 362.767 119.969 367.85 119.969C370.183 119.969 372.173 119.26 373.819 117.844C375.485 116.427 376.319 114.583 376.319 112.312C376.319 108.688 374.152 105.312 369.819 102.188C368.59 101.312 366.819 100.094 364.506 98.5312C362.194 96.9688 360.35 95.4062 358.975 93.8438C356.829 91.4271 355.756 88.7396 355.756 85.7812C355.756 82.8021 356.933 80.3646 359.288 78.4688C361.663 76.5729 364.381 75.625 367.444 75.625C369.027 75.625 370.767 75.8958 372.663 76.4375C374.579 76.9792 375.913 77.3438 376.663 77.5312L378.413 77.3125Z" fill="white"/>
<path d="M4.70875 188L8.62875 174.8H10.5088L14.4288 188H12.7688L11.7688 184.52H7.32875L6.32875 188H4.70875ZM7.72875 183.08H11.3688L9.58875 176.84H9.50875L7.72875 183.08ZM55.0916 188V174.8H56.6916V186.56H62.9316V188H55.0916ZM82.743 188.24C79.603 188.24 78.183 186.12 78.183 181.4C78.183 176.68 79.603 174.56 82.743 174.56C85.883 174.56 87.303 176.68 87.303 181.4C87.303 186.12 85.883 188.24 82.743 188.24ZM82.743 186.74C84.743 186.74 85.643 185.08 85.643 181.4C85.643 177.72 84.743 176.06 82.743 176.06C80.743 176.06 79.843 177.72 79.843 181.4C79.843 185.08 80.743 186.74 82.743 186.74ZM107.134 188.24C103.994 188.24 102.574 186.12 102.574 181.4C102.574 176.68 103.994 174.56 107.134 174.56C110.274 174.56 111.694 176.68 111.694 181.4C111.694 186.12 110.274 188.24 107.134 188.24ZM107.134 186.74C109.134 186.74 110.034 185.08 110.034 181.4C110.034 177.72 109.134 176.06 107.134 176.06C105.134 176.06 104.234 177.72 104.234 181.4C104.234 185.08 105.134 186.74 107.134 186.74ZM127.206 188V174.8H129.046L131.486 182.02H131.586L134.026 174.8H135.846V188H134.406V177.52H134.326L131.906 184.66H131.106L128.686 177.52H128.606V188H127.206ZM176.309 188V186.56H179.509V176.24H176.309V174.8H184.309V176.24H181.109V186.56H184.309V188H176.309ZM200.58 188V174.8H202.4L207.2 184.64H207.28V174.8H208.82V188H207.28L202.2 177.62H202.12V188H200.58ZM228.291 188V176.24H224.491V174.8H233.691V176.24H229.891V188H228.291ZM250.083 188V174.8H257.963V176.24H251.683V180.46H256.763V181.9H251.683V186.56H257.963V188H250.083ZM274.154 188V174.8H278.274C280.954 174.8 282.274 176.04 282.274 178.5C282.274 180.48 281.414 181.68 279.674 182.06L282.534 188H280.754L277.994 182.2H275.754V188H274.154ZM275.754 180.76H278.074C279.854 180.76 280.614 180.06 280.614 178.5C280.614 176.94 279.854 176.24 278.074 176.24H275.754V180.76ZM298.966 188V174.8H306.846V176.24H300.566V180.56H305.646V182H300.566V188H298.966ZM321.797 188L325.717 174.8H327.597L331.517 188H329.857L328.857 184.52H324.417L323.417 188H321.797ZM324.817 183.08H328.457L326.677 176.84H326.597L324.817 183.08ZM351.288 188.24C348.148 188.24 346.748 186.1 346.748 181.4C346.748 176.7 348.148 174.56 351.288 174.56C353.868 174.56 355.268 176.02 355.688 179.1H354.008C353.688 177.04 352.808 176.06 351.288 176.06C349.308 176.06 348.408 177.72 348.408 181.4C348.408 185.08 349.308 186.74 351.288 186.74C352.808 186.74 353.688 185.76 354.008 183.7H355.688C355.268 186.78 353.868 188.24 351.288 188.24ZM372.04 188V174.8H379.92V176.24H373.64V180.46H378.72V181.9H373.64V186.56H379.92V188H372.04Z" fill="white"/>
</svg>
