<svg width="376" height="15" viewBox="0 0 376 15" fill="none" xmlns="http://www.w3.org/2000/svg">
<path d="M0.70875 14L4.62875 0.799999H6.50875L10.4288 14H8.76875L7.76875 10.52H3.32875L2.32875 14H0.70875ZM3.72875 9.08H7.36875L5.58875 2.84H5.50875L3.72875 9.08ZM51.0916 14V0.799999H52.6916V12.56H58.9316V14H51.0916ZM78.743 14.24C75.603 14.24 74.183 12.12 74.183 7.4C74.183 2.68 75.603 0.559999 78.743 0.559999C81.883 0.559999 83.303 2.68 83.303 7.4C83.303 12.12 81.883 14.24 78.743 14.24ZM78.743 12.74C80.743 12.74 81.643 11.08 81.643 7.4C81.643 3.72 80.743 2.06 78.743 2.06C76.743 2.06 75.843 3.72 75.843 7.4C75.843 11.08 76.743 12.74 78.743 12.74ZM103.134 14.24C99.9944 14.24 98.5744 12.12 98.5744 7.4C98.5744 2.68 99.9944 0.559999 103.134 0.559999C106.274 0.559999 107.694 2.68 107.694 7.4C107.694 12.12 106.274 14.24 103.134 14.24ZM103.134 12.74C105.134 12.74 106.034 11.08 106.034 7.4C106.034 3.72 105.134 2.06 103.134 2.06C101.134 2.06 100.234 3.72 100.234 7.4C100.234 11.08 101.134 12.74 103.134 12.74ZM123.206 14V0.799999H125.046L127.486 8.02H127.586L130.026 0.799999H131.846V14H130.406V3.52H130.326L127.906 10.66H127.106L124.686 3.52H124.606V14H123.206ZM172.309 14V12.56H175.509V2.24H172.309V0.799999H180.309V2.24H177.109V12.56H180.309V14H172.309ZM196.58 14V0.799999H198.4L203.2 10.64H203.28V0.799999H204.82V14H203.28L198.2 3.62H198.12V14H196.58ZM224.291 14V2.24H220.491V0.799999H229.691V2.24H225.891V14H224.291ZM246.083 14V0.799999H253.963V2.24H247.683V6.46H252.763V7.9H247.683V12.56H253.963V14H246.083ZM270.154 14V0.799999H274.274C276.954 0.799999 278.274 2.04 278.274 4.5C278.274 6.48 277.414 7.68 275.674 8.06L278.534 14H276.754L273.994 8.2H271.754V14H270.154ZM271.754 6.76H274.074C275.854 6.76 276.614 6.06 276.614 4.5C276.614 2.94 275.854 2.24 274.074 2.24H271.754V6.76ZM294.966 14V0.799999H302.846V2.24H296.566V6.56H301.646V8H296.566V14H294.966ZM317.797 14L321.717 0.799999H323.597L327.517 14H325.857L324.857 10.52H320.417L319.417 14H317.797ZM320.817 9.08H324.457L322.677 2.84H322.597L320.817 9.08ZM347.288 14.24C344.148 14.24 342.748 12.1 342.748 7.4C342.748 2.7 344.148 0.559999 347.288 0.559999C349.868 0.559999 351.268 2.02 351.688 5.1H350.008C349.688 3.04 348.808 2.06 347.288 2.06C345.308 2.06 344.408 3.72 344.408 7.4C344.408 11.08 345.308 12.74 347.288 12.74C348.808 12.74 349.688 11.76 350.008 9.7H351.688C351.268 12.78 349.868 14.24 347.288 14.24ZM368.04 14V0.799999H375.92V2.24H369.64V6.46H374.72V7.9H369.64V12.56H375.92V14H368.04Z" fill="white"/>
</svg>
